<svg width="80" height="111" viewBox="0 0 80 111" fill="none" xmlns="http://www.w3.org/2000/svg">
<g clip-path="url(#clip0)">
<path d="M65.8692 16.6831C62.0106 13.6796 57.9144 13.0328 55.3744 13.4323C52.3901 13.8964 52.6593 16.4004 52.6593 19.1852V97.2373H60.8481V75.5751H73.6173C73.6214 75.5751 73.6255 75.5751 73.6297 75.5751C75.2727 75.5751 76.8475 74.9759 78.009 73.9088C79.1747 72.8379 79.8298 71.3846 79.8298 69.8685C79.8277 41.7845 75.1322 23.8906 65.8692 16.6831ZM60.8481 67.1482V23.2963C63.0815 26.7223 73.5037 37.257 72.0148 67.1482H60.8481Z" fill="#E04B4B"/>
<path d="M16.1815 58.6892V97.7451H25.1148V58.6892C34 56.4999 40.0037 46.5925 40.0037 35.0107C40.0037 20.5555 32.7543 12.3333 20.6496 12.3333C8.54278 12.3333 0.548157 21.3909 0.548157 35.0107C0.548157 46.2051 6.5 56.4999 16.1815 58.6892ZM20.6496 18.4999C31.8148 18.4999 34 27.8089 34 35.0107C34 39.4999 33.2991 51.9999 20.6496 51.9999C8 51.9999 6.5 37.9999 6.5 35.0107C6.5 27.807 8.64436 18.4999 20.6496 18.4999Z" fill="#E04B4B"/>
<path d="M80.37 106.889H0.369995V110.889H80.37V106.889Z" fill="#484041"/>
</g>
<defs>
<clipPath id="clip0">
<rect width="80" height="111" fill="white"/>
</clipPath>
</defs>
</svg>
